<svg width="76" height="26" viewBox="0 0 76 26" fill="none" xmlns="http://www.w3.org/2000/svg">
<path d="M69.9175 8.30102e-05H6.05296C5.82016 8.30102e-05 5.59016 8.30103e-05 5.35798 0.00136009C5.16363 0.00263717 4.97082 0.00634709 4.7746 0.00946955C4.34832 0.0145152 3.92304 0.0522366 3.50245 0.122306C3.08246 0.193901 2.67563 0.328877 2.29571 0.522671C1.91625 0.718103 1.56953 0.972048 1.26813 1.27529C0.965143 1.57768 0.71258 1.92721 0.520153 2.31042C0.327195 2.69288 0.193397 3.10271 0.12338 3.52577C0.0526983 3.94829 0.0146637 4.37569 0.00961777 4.80413C0.00372649 4.9999 0.00310435 5.19633 0 5.39213V20.1515C0.00310435 20.3498 0.00372649 20.5419 0.00961777 20.7402C0.0146652 21.1686 0.0526999 21.596 0.12338 22.0185C0.193203 22.4418 0.327009 22.8519 0.520153 23.2345C0.712493 23.6164 0.965091 23.9645 1.26813 24.2652C1.56839 24.5698 1.91533 24.824 2.29571 25.0179C2.67562 25.2122 3.08242 25.348 3.50245 25.4207C3.92311 25.4902 4.34835 25.5279 4.7746 25.5336C4.97082 25.5379 5.16363 25.5404 5.35798 25.5404C5.59016 25.5417 5.82018 25.5417 6.05296 25.5417H69.9175C70.1457 25.5417 70.3775 25.5417 70.6057 25.5404C70.7991 25.5404 70.9975 25.5379 71.1909 25.5336C71.6164 25.5282 72.0408 25.4905 72.4606 25.4207C72.882 25.3475 73.2903 25.2117 73.672 25.0179C74.052 24.8238 74.3987 24.5697 74.6987 24.2652C75.0009 23.9634 75.2541 23.6155 75.4488 23.2345C75.6405 22.8516 75.773 22.4415 75.8418 22.0185C75.9126 21.5959 75.952 21.1686 75.9596 20.7402C75.9621 20.5419 75.9621 20.3498 75.9621 20.1515C75.9671 19.9195 75.9671 19.6888 75.9671 19.4531V6.08928C75.9671 5.85544 75.9671 5.62348 75.9621 5.39213C75.9621 5.19633 75.9621 4.9999 75.9596 4.8041C75.952 4.37563 75.9126 3.94833 75.8418 3.52574C75.7728 3.10293 75.6403 2.69313 75.4488 2.3104C75.0569 1.54228 74.4355 0.917043 73.672 0.522613C73.2903 0.329293 72.882 0.194353 72.4606 0.122249C72.0409 0.0518704 71.6164 0.0141359 71.1909 0.00938015C70.9975 0.00626408 70.7991 0.00252223 70.6057 0.00127708C70.3775 0 70.1457 0 69.9175 0V8.30102e-05Z" fill="#A6A6A6"/>
<path d="M5.36131 24.983C5.16789 24.983 4.97914 24.9805 4.78723 24.9761C4.38969 24.9709 3.99307 24.9361 3.60063 24.872C3.23471 24.8086 2.88023 24.6907 2.54888 24.5221C2.22057 24.355 1.92112 24.1358 1.66201 23.873C1.39915 23.6133 1.18031 23.312 1.01415 22.9813C0.846169 22.6483 0.729914 22.2914 0.669438 21.9231C0.604128 21.5272 0.568793 21.127 0.563737 20.7258C0.559713 20.5911 0.554443 20.1428 0.554443 20.1428V5.39212C0.554443 5.39212 0.560055 4.95063 0.563769 4.82092C0.56861 4.42035 0.60374 4.02074 0.668854 3.62553C0.729442 3.25615 0.845787 2.89824 1.01386 2.56421C1.1794 2.23365 1.39703 1.9322 1.65831 1.67156C1.91929 1.40845 2.2197 1.18814 2.54857 1.01868C2.87915 0.850665 3.23297 0.733581 3.59815 0.671348C3.99188 0.606578 4.38987 0.57156 4.78879 0.566589L5.36162 0.558792H70.6028L71.1825 0.566902C71.5778 0.571626 71.9722 0.606331 72.3623 0.670722C72.7311 0.733736 73.0886 0.851637 73.423 1.02055C74.0819 1.36207 74.6179 1.90238 74.9561 2.56577C75.1215 2.8975 75.2361 3.25248 75.2959 3.61867C75.3618 4.01712 75.3987 4.41988 75.4062 4.82373C75.4081 5.00456 75.4081 5.19881 75.4081 5.39212C75.4131 5.63157 75.4131 5.85949 75.4131 6.08927V19.4531C75.4131 19.685 75.4131 19.9114 75.4081 20.1396C75.4081 20.3473 75.4081 20.5375 75.4056 20.7333C75.3982 21.1299 75.3619 21.5255 75.2971 21.9168C75.2379 22.2878 75.1222 22.6475 74.9543 22.9832C74.787 23.3104 74.5694 23.609 74.3096 23.868C74.0502 24.1322 73.7502 24.3527 73.4212 24.5209C73.0877 24.6908 72.7308 24.8091 72.3623 24.872C71.9698 24.9364 71.5732 24.9713 71.1756 24.9761C70.9897 24.9805 70.795 24.983 70.6059 24.983L69.9178 24.9842L5.36131 24.983Z" fill="black"/>
<path d="M15.7239 12.9628C15.7308 12.4299 15.8715 11.9073 16.1331 11.4438C16.3947 10.9802 16.7685 10.5907 17.22 10.3116C16.9332 9.89962 16.5549 9.56059 16.115 9.32142C15.6752 9.08226 15.186 8.94954 14.6862 8.93381C13.6202 8.82127 12.5867 9.57544 12.0435 9.57544C11.4897 9.57544 10.6533 8.94499 9.75268 8.96363C9.1701 8.98256 8.60234 9.15296 8.10471 9.45822C7.60707 9.76348 7.19654 10.1932 6.91311 10.7055C5.68533 12.8436 6.60114 15.9859 7.77725 17.7141C8.36567 18.5604 9.05338 19.5058 9.95323 19.4722C10.8338 19.4355 11.1627 18.9075 12.2256 18.9075C13.2786 18.9075 13.5872 19.4722 14.5053 19.4509C15.4501 19.4355 16.0455 18.6009 16.6132 17.7466C17.036 17.1436 17.3614 16.4771 17.5772 15.7719C17.0282 15.5384 16.5598 15.1475 16.2302 14.6479C15.9007 14.1484 15.7246 13.5623 15.7239 12.9628Z" fill="white"/>
<path d="M13.99 7.7972C14.5052 7.17513 14.759 6.37556 14.6975 5.5683C13.9104 5.65145 13.1834 6.02982 12.6612 6.62803C12.4059 6.92026 12.2104 7.26025 12.0858 7.62854C11.9612 7.99683 11.9101 8.3862 11.9352 8.77441C12.3289 8.77848 12.7183 8.69266 13.0743 8.52339C13.4302 8.35412 13.7433 8.10582 13.99 7.7972Z" fill="white"/>
<path d="M26.8548 17.3298H23.8499L23.1282 19.473H21.8555L24.7017 11.5436H26.0241L28.8703 19.473H27.5758L26.8548 17.3298ZM24.1611 16.3408H26.543L25.3688 12.8625H25.3359L24.1611 16.3408Z" fill="white"/>
<path d="M35.0171 16.5828C35.0171 18.3793 34.0612 19.5335 32.6185 19.5335C32.2531 19.5527 31.8896 19.4681 31.5698 19.2892C31.25 19.1103 30.9867 18.8445 30.8101 18.5221H30.7828V21.3855H29.603V13.6919H30.745V14.6534H30.7667C30.9514 14.3326 31.2191 14.0681 31.5414 13.8881C31.8637 13.7082 32.2284 13.6194 32.5968 13.6314C34.0556 13.6314 35.0171 14.7912 35.0171 16.5828ZM33.8045 16.5828C33.8045 15.4123 33.2031 14.6428 32.2856 14.6428C31.3842 14.6428 30.7779 15.4285 30.7779 16.5828C30.7779 17.7476 31.3842 18.5277 32.2856 18.5277C33.2031 18.5277 33.8045 17.7638 33.8045 16.5828Z" fill="white"/>
<path d="M41.3435 16.5828C41.3435 18.3793 40.3876 19.5335 38.9449 19.5335C38.5795 19.5527 38.216 19.4681 37.8962 19.2892C37.5764 19.1103 37.3131 18.8444 37.1365 18.5221H37.1092V21.3855H35.9294V13.6919H37.0714V14.6534H37.0931C37.2778 14.3326 37.5455 14.0681 37.8678 13.8881C38.1901 13.7082 38.5548 13.6194 38.9232 13.6314C40.382 13.6314 41.3435 14.7912 41.3435 16.5828ZM40.1309 16.5828C40.1309 15.4123 39.5295 14.6428 38.612 14.6428C37.7106 14.6428 37.1043 15.4285 37.1043 16.5828C37.1043 17.7476 37.7106 18.5277 38.612 18.5277C39.5296 18.5277 40.1309 17.7638 40.1309 16.5828H40.1309Z" fill="white"/>
<path d="M45.5241 17.2637C45.6115 18.05 46.371 18.5663 47.4088 18.5663C48.4032 18.5663 49.1186 18.05 49.1186 17.341C49.1186 16.7255 48.6871 16.357 47.6654 16.1044L46.6438 15.8569C45.1962 15.5052 44.5241 14.8242 44.5241 13.7193C44.5241 12.3511 45.7095 11.4114 47.3927 11.4114C49.0585 11.4114 50.2004 12.3511 50.2389 13.7193H49.0479C48.9766 12.9279 48.3263 12.4503 47.3759 12.4503C46.4255 12.4503 45.7752 12.9336 45.7752 13.6369C45.7752 14.1975 46.1905 14.5274 47.2067 14.7799L48.0752 14.9944C49.6927 15.3792 50.3647 16.0327 50.3647 17.1925C50.3647 18.676 49.1899 19.6052 47.3213 19.6052C45.5731 19.6052 44.3927 18.6979 44.3164 17.2636L45.5241 17.2637Z" fill="white"/>
<path d="M52.9107 12.3237V13.6918H54.0037V14.6316H52.9107V17.8187C52.9107 18.3138 53.1296 18.5445 53.61 18.5445C53.7398 18.5422 53.8693 18.5331 53.9981 18.517V19.4511C53.7821 19.4917 53.5625 19.5101 53.3428 19.506C52.1792 19.506 51.7253 19.0664 51.7253 17.9452V14.6316H50.8896V13.6918H51.7253V12.3237H52.9107Z" fill="white"/>
<path d="M54.6372 16.5827C54.6372 14.7638 55.7023 13.6207 57.3632 13.6207C59.0296 13.6207 60.0897 14.7637 60.0897 16.5827C60.0897 18.4067 59.0352 19.5447 57.3632 19.5447C55.6917 19.5447 54.6372 18.4067 54.6372 16.5827ZM58.8876 16.5827C58.8876 15.3349 58.3191 14.5985 57.3632 14.5985C56.4072 14.5985 55.8393 15.3406 55.8393 16.5827C55.8393 17.8355 56.4072 18.5663 57.3632 18.5663C58.3191 18.5663 58.8876 17.8355 58.8876 16.5827H58.8876Z" fill="white"/>
<path d="M61.062 13.6918H62.1872V14.6758H62.2145C62.2907 14.3685 62.4697 14.0969 62.7214 13.9067C62.9732 13.7165 63.2824 13.6193 63.597 13.6313C63.733 13.6309 63.8686 13.6457 64.0013 13.6756V14.7856C63.8296 14.7328 63.6506 14.7086 63.4712 14.7139C63.2998 14.7069 63.1289 14.7373 62.9703 14.803C62.8117 14.8687 62.6691 14.9681 62.5523 15.0945C62.4355 15.2208 62.3473 15.3711 62.2937 15.535C62.2401 15.6989 62.2224 15.8725 62.2418 16.044V19.473H61.062L61.062 13.6918Z" fill="white"/>
<path d="M69.4408 17.775C69.2821 18.8245 68.266 19.5447 66.9659 19.5447C65.2939 19.5447 64.2561 18.4179 64.2561 16.6102C64.2561 14.7968 65.2995 13.6207 66.9163 13.6207C68.5065 13.6207 69.5065 14.7195 69.5065 16.4723V16.8789H65.447V16.9506C65.4283 17.1634 65.4548 17.3777 65.5247 17.5794C65.5947 17.7811 65.7065 17.9655 65.8527 18.1204C65.999 18.2752 66.1763 18.397 66.3729 18.4777C66.5696 18.5583 66.781 18.596 66.9932 18.5881C67.272 18.6144 67.5518 18.5495 67.7909 18.403C68.0301 18.2564 68.2158 18.0362 68.3206 17.775L69.4408 17.775ZM65.4526 16.0496H68.3261C68.3367 15.8583 68.3079 15.6668 68.2414 15.4873C68.175 15.3077 68.0723 15.1439 67.94 15.0061C67.8076 14.8683 67.6483 14.7596 67.4722 14.6866C67.296 14.6137 67.1068 14.5782 66.9163 14.5823C66.7242 14.5811 66.5338 14.6183 66.356 14.6915C66.1782 14.7648 66.0166 14.8728 65.8805 15.0092C65.7445 15.1456 65.6366 15.3078 65.5631 15.4863C65.4897 15.6649 65.4521 15.8563 65.4526 16.0496V16.0496Z" fill="white"/>
<path d="M24.013 5.57515C24.2604 5.5573 24.5086 5.59489 24.7397 5.6852C24.9709 5.77551 25.1792 5.91629 25.3497 6.0974C25.5202 6.2785 25.6486 6.49542 25.7257 6.73249C25.8028 6.96956 25.8266 7.22088 25.7954 7.46832C25.7954 8.68554 25.1413 9.38522 24.013 9.38522H22.6448V5.57515H24.013ZM23.2331 8.8464H23.9473C24.124 8.85702 24.3009 8.82787 24.465 8.76107C24.6292 8.69427 24.7764 8.5915 24.8961 8.46024C25.0158 8.32898 25.1048 8.17253 25.1568 8.00228C25.2088 7.83204 25.2223 7.65228 25.1965 7.47609C25.2205 7.3006 25.2055 7.12195 25.1527 6.95295C25.1 6.78395 25.0107 6.62879 24.8913 6.49857C24.7719 6.36835 24.6254 6.26631 24.4622 6.19975C24.299 6.13319 24.1231 6.10376 23.9473 6.11358H23.2331V8.8464Z" fill="white"/>
<path d="M26.4597 7.94626C26.4418 7.75731 26.4633 7.56666 26.5228 7.38655C26.5824 7.20643 26.6788 7.04083 26.8057 6.90037C26.9326 6.7599 27.0873 6.64767 27.2599 6.57086C27.4325 6.49406 27.6191 6.45439 27.8078 6.45439C27.9966 6.45439 28.1832 6.49406 28.3558 6.57086C28.5284 6.64767 28.6831 6.7599 28.81 6.90037C28.9369 7.04083 29.0333 7.20643 29.0928 7.38655C29.1524 7.56666 29.1739 7.75731 29.1559 7.94626C29.1743 8.13541 29.153 8.32632 29.0936 8.50673C29.0342 8.68713 28.9379 8.85304 28.8109 8.99378C28.684 9.13452 28.5291 9.24699 28.3564 9.32396C28.1836 9.40092 27.9968 9.44068 27.8078 9.44068C27.6189 9.44068 27.432 9.40092 27.2593 9.32396C27.0865 9.24699 26.9317 9.13452 26.8047 8.99378C26.6778 8.85304 26.5815 8.68713 26.5221 8.50673C26.4627 8.32632 26.4414 8.13541 26.4597 7.94626ZM28.5757 7.94626C28.5757 7.323 28.2973 6.95852 27.8088 6.95852C27.3184 6.95852 27.0425 7.323 27.0425 7.94627C27.0425 8.57452 27.3184 8.93619 27.8088 8.93619C28.2973 8.93619 28.5757 8.57202 28.5757 7.94626H28.5757Z" fill="white"/>
<path d="M32.7401 9.38514H32.1549L31.5641 7.26748H31.5194L30.9311 9.38514H30.3514L29.5635 6.50984H30.1357L30.6478 8.70387H30.6899L31.2777 6.50984H31.8189L32.4066 8.70387H32.4512L32.9608 6.50984H33.525L32.7401 9.38514Z" fill="white"/>
<path d="M34.1875 6.50986H34.7306V6.96662H34.7727C34.8443 6.80257 34.9649 6.66504 35.1178 6.57322C35.2707 6.48139 35.4483 6.43984 35.6258 6.45435C35.7649 6.44383 35.9046 6.46493 36.0344 6.51607C36.1643 6.56722 36.2811 6.6471 36.3761 6.74981C36.4712 6.85251 36.542 6.97541 36.5834 7.10939C36.6248 7.24336 36.6357 7.38499 36.6153 7.52378V9.38513H36.0511V7.66628C36.0511 7.20421 35.8515 6.97442 35.4342 6.97442C35.3398 6.97 35.2455 6.98616 35.1579 7.02181C35.0702 7.05746 34.9913 7.11175 34.9265 7.18096C34.8616 7.25017 34.8124 7.33266 34.7823 7.42277C34.7521 7.51289 34.7417 7.60851 34.7517 7.70306V9.38516H34.1875L34.1875 6.50986Z" fill="white"/>
<path d="M37.5144 5.38742H38.0786V9.38515H37.5144V5.38742Z" fill="white"/>
<path d="M38.8633 7.94629C38.8453 7.75732 38.8668 7.56666 38.9264 7.38654C38.986 7.20642 39.0824 7.04081 39.2093 6.90034C39.3363 6.75987 39.491 6.64764 39.6636 6.57084C39.8362 6.49403 40.0228 6.45436 40.2115 6.45436C40.4003 6.45436 40.5869 6.49403 40.7595 6.57084C40.9321 6.64764 41.0868 6.75987 41.2138 6.90034C41.3407 7.04081 41.4371 7.20642 41.4967 7.38654C41.5563 7.56666 41.5778 7.75732 41.5598 7.94629C41.5781 8.13544 41.5568 8.32636 41.4974 8.50676C41.438 8.68716 41.3417 8.85306 41.2147 8.9938C41.0877 9.13454 40.9329 9.24701 40.7601 9.32397C40.5874 9.40093 40.4005 9.44069 40.2115 9.44069C40.0226 9.44069 39.8357 9.40093 39.663 9.32397C39.4902 9.24701 39.3354 9.13454 39.2084 8.9938C39.0814 8.85306 38.9851 8.68716 38.9257 8.50676C38.8663 8.32636 38.845 8.13544 38.8633 7.94629ZM40.9792 7.94629C40.9792 7.32303 40.7008 6.95855 40.2123 6.95855C39.7219 6.95855 39.4461 7.32303 39.4461 7.94629C39.4461 8.57455 39.722 8.93622 40.2123 8.93622C40.7008 8.93621 40.9792 8.57204 40.9792 7.94629H40.9792Z" fill="white"/>
<path d="M42.1536 8.57202C42.1536 8.05445 42.5367 7.75607 43.2168 7.71366L43.9911 7.66877V7.42059C43.9911 7.1169 43.7915 6.94542 43.4059 6.94542C43.0909 6.94542 42.8727 7.06172 42.8101 7.26501H42.2639C42.3216 6.77113 42.7834 6.45436 43.4319 6.45436C44.1486 6.45436 44.5528 6.81322 44.5528 7.42059V9.38516H44.0097V8.98108H43.9651C43.8745 9.12603 43.7473 9.24419 43.5964 9.3235C43.4456 9.40282 43.2765 9.44044 43.1064 9.43253C42.9864 9.44509 42.8651 9.43221 42.7504 9.39473C42.6356 9.35725 42.53 9.29599 42.4402 9.21492C42.3504 9.13384 42.2785 9.03475 42.2292 8.92401C42.1798 8.81328 42.154 8.69337 42.1536 8.57202ZM43.9911 8.32632V8.08594L43.293 8.13084C42.8994 8.15734 42.7208 8.29203 42.7208 8.54551C42.7208 8.80429 42.944 8.95488 43.2509 8.95488C43.3408 8.96404 43.4317 8.95491 43.518 8.92803C43.6043 8.90116 43.6844 8.85708 43.7535 8.79844C43.8226 8.7398 43.8792 8.66778 43.92 8.58667C43.9608 8.50556 43.985 8.41703 43.9911 8.32632Z" fill="white"/>
<path d="M45.2944 7.94627C45.2944 7.03772 45.7588 6.46216 46.481 6.46216C46.6597 6.45388 46.837 6.49692 46.9922 6.58625C47.1475 6.67558 47.2742 6.8075 47.3576 6.96661H47.3998V5.38742H47.964V9.38515H47.4234V8.93088H47.3787C47.2888 9.08891 47.1577 9.2192 46.9994 9.30762C46.8412 9.39605 46.6619 9.43925 46.481 9.43254C45.7538 9.43257 45.2944 8.857 45.2944 7.94627ZM45.8772 7.94627C45.8772 8.55612 46.163 8.9231 46.641 8.9231C47.1165 8.9231 47.4104 8.55083 47.4104 7.94876C47.4104 7.34951 47.1134 6.97193 46.641 6.97193C46.1661 6.97193 45.8772 7.3414 45.8772 7.94627H45.8772Z" fill="white"/>
<path d="M50.2984 7.94626C50.2804 7.75731 50.3019 7.56666 50.3615 7.38655C50.421 7.20643 50.5174 7.04083 50.6443 6.90037C50.7712 6.7599 50.9259 6.64767 51.0985 6.57086C51.2711 6.49406 51.4577 6.45439 51.6465 6.45439C51.8352 6.45439 52.0218 6.49406 52.1944 6.57086C52.367 6.64767 52.5217 6.7599 52.6486 6.90037C52.7755 7.04083 52.8719 7.20643 52.9315 7.38655C52.991 7.56666 53.0125 7.75731 52.9946 7.94626C53.0129 8.13541 52.9916 8.32632 52.9322 8.50673C52.8728 8.68713 52.7765 8.85304 52.6496 8.99378C52.5226 9.13452 52.3678 9.24699 52.195 9.32396C52.0223 9.40092 51.8354 9.44068 51.6465 9.44068C51.4575 9.44068 51.2707 9.40092 51.0979 9.32396C50.9252 9.24699 50.7703 9.13452 50.6434 8.99378C50.5164 8.85304 50.4201 8.68713 50.3607 8.50673C50.3013 8.32632 50.2801 8.13541 50.2984 7.94626ZM52.4143 7.94626C52.4143 7.323 52.1359 6.95852 51.6474 6.95852C51.157 6.95852 50.8811 7.323 50.8811 7.94627C50.8811 8.57452 51.157 8.93619 51.6474 8.93619C52.1359 8.93619 52.4143 8.57202 52.4143 7.94626Z" fill="white"/>
<path d="M53.751 6.50986H54.2941V6.96662H54.3362C54.4077 6.80257 54.5284 6.66504 54.6813 6.57322C54.8342 6.48139 55.0118 6.43984 55.1893 6.45435C55.3284 6.44383 55.468 6.46493 55.5979 6.51607C55.7278 6.56722 55.8446 6.6471 55.9396 6.74981C56.0346 6.85251 56.1055 6.97541 56.1469 7.10939C56.1883 7.24336 56.1991 7.38499 56.1787 7.52378V9.38513H55.6146V7.66628C55.6146 7.20421 55.4149 6.97442 54.9977 6.97442C54.9033 6.97 54.809 6.98616 54.7214 7.02181C54.6337 7.05746 54.5548 7.11175 54.4899 7.18096C54.4251 7.25017 54.3759 7.33266 54.3457 7.42277C54.3156 7.51289 54.3051 7.60851 54.3151 7.70306V9.38516H53.751V6.50986Z" fill="white"/>
<path d="M59.3667 5.79399V6.52295H59.9861V7.00092H59.3667V8.47942C59.3667 8.7806 59.4901 8.91249 59.7709 8.91249C59.8428 8.91225 59.9147 8.90788 59.9861 8.89939V9.37206C59.8848 9.39029 59.7821 9.39999 59.6792 9.40105C59.0518 9.40105 58.802 9.17906 58.802 8.6247V7.0009H58.3481V6.52292H58.802V5.79399H59.3667Z" fill="white"/>
<path d="M60.7563 5.38742H61.3155V6.97193H61.3602C61.4352 6.80634 61.5591 6.66804 61.7151 6.57587C61.8711 6.48369 62.0515 6.44214 62.2318 6.45685C62.3702 6.44928 62.5085 6.47252 62.6369 6.5249C62.7653 6.57729 62.8807 6.65754 62.9747 6.75992C63.0687 6.8623 63.1391 6.9843 63.1809 7.1172C63.2227 7.2501 63.2347 7.39064 63.2163 7.52878V9.38516H62.6516V7.66876C62.6516 7.2095 62.4389 6.97691 62.0403 6.97691C61.9433 6.96891 61.8458 6.98232 61.7545 7.01619C61.6633 7.05007 61.5804 7.1036 61.5119 7.17303C61.4433 7.24246 61.3907 7.32612 61.3576 7.41816C61.3246 7.5102 61.3119 7.60839 61.3205 7.70586V9.38515H60.7564L60.7563 5.38742Z" fill="white"/>
<path d="M66.5064 8.60878C66.4298 8.87157 66.2637 9.09888 66.0373 9.25094C65.8108 9.40301 65.5384 9.47016 65.2678 9.44063C65.0794 9.44563 64.8923 9.40935 64.7193 9.3343C64.5463 9.25925 64.3916 9.14724 64.266 9.00603C64.1403 8.86483 64.0467 8.69781 63.9917 8.51658C63.9367 8.33535 63.9215 8.14424 63.9472 7.95653C63.9222 7.76823 63.9376 7.57671 63.9925 7.39494C64.0474 7.21316 64.1405 7.04537 64.2655 6.90293C64.3905 6.76049 64.5444 6.64672 64.7169 6.56932C64.8894 6.49193 65.0764 6.45271 65.2653 6.45433C66.0607 6.45433 66.5405 7.00092 66.5405 7.90382V8.10182H64.5219V8.13362C64.5131 8.23914 64.5263 8.34535 64.5607 8.44544C64.595 8.54553 64.6498 8.6373 64.7215 8.71485C64.7931 8.7924 64.8801 8.85404 64.9769 8.8958C65.0736 8.93755 65.178 8.95852 65.2833 8.95734C65.4182 8.97364 65.5549 8.9492 65.676 8.88712C65.7971 8.82505 65.8971 8.72816 65.9633 8.60876L66.5064 8.60878ZM64.5219 7.68215H65.9658C65.9729 7.58565 65.9599 7.48872 65.9275 7.39759C65.8952 7.30646 65.8442 7.22314 65.778 7.15299C65.7117 7.08284 65.6316 7.02741 65.5427 6.99027C65.4539 6.95312 65.3583 6.93507 65.2622 6.93729C65.1646 6.93606 65.0678 6.95449 64.9774 6.99149C64.887 7.02849 64.8049 7.08331 64.7359 7.15273C64.6669 7.22215 64.6124 7.30475 64.5757 7.39568C64.539 7.4866 64.5207 7.58401 64.5219 7.68215H64.5219Z" fill="white"/>
</svg>
