<svg width="87" height="26" viewBox="0 0 87 26" fill="none" xmlns="http://www.w3.org/2000/svg">
<path d="M83.0138 25.5416H3.81915C2.07687 25.5416 0.651367 24.1118 0.651367 22.3643V3.30065C0.651367 1.55315 2.07687 0.123371 3.81915 0.123371H83.0138C84.7561 0.123371 86.1816 1.55315 86.1816 3.30065V22.3643C86.1816 24.1118 84.7561 25.5416 83.0138 25.5416Z" fill="black"/>
<path d="M83.0138 0.123371H3.81915C2.07687 0.123371 0.651367 1.55315 0.651367 3.30065V22.3643C0.651367 24.1118 2.07687 25.5416 3.81915 25.5416H83.0138C84.7561 25.5416 86.1816 24.1118 86.1816 22.3643V3.30065C86.1816 1.55315 84.7561 0.123371 83.0138 0.123371ZM83.0138 0.631736C84.4811 0.631736 85.6747 1.82919 85.6747 3.30065V22.3643C85.6747 23.836 84.4811 25.0335 83.0138 25.0335H3.81915C2.35209 25.0335 1.15821 23.836 1.15821 22.3643V3.30065C1.15821 1.82919 2.35209 0.631736 3.81915 0.631736H83.0138Z" fill="#A6A6A6"/>
<path d="M30.6935 6.63261C30.6935 7.16499 30.5363 7.58897 30.2215 7.90523C29.8639 8.28129 29.3979 8.46945 28.825 8.46945C28.2763 8.46945 27.8098 8.27882 27.4262 7.89703C27.0419 7.51551 26.8501 7.04241 26.8501 6.47794C26.8501 5.91321 27.0419 5.44037 27.4262 5.05859C27.8098 4.67706 28.2763 4.48617 28.825 4.48617C29.0972 4.48617 29.3578 4.53955 29.6053 4.64605C29.8528 4.7528 30.0513 4.89451 30.1998 5.07199L29.8656 5.40732C29.614 5.10574 29.2675 4.95507 28.825 4.95507C28.4248 4.95507 28.0788 5.09608 27.7868 5.37828C27.4947 5.66081 27.3488 6.02715 27.3488 6.47794C27.3488 6.92873 27.4947 7.29507 27.7868 7.57759C28.0788 7.8598 28.4248 8.0008 28.825 8.0008C29.2494 8.0008 29.6033 7.85903 29.8867 7.57511C30.0706 7.39013 30.177 7.13303 30.2054 6.80285H28.825V6.34487H30.667C30.6848 6.44445 30.6935 6.54002 30.6935 6.63261Z" fill="white"/>
<path d="M30.6936 6.6326H30.6303C30.6298 7.15284 30.4783 7.55693 30.1768 7.8603L30.1761 7.8608L30.1759 7.86131C29.8296 8.22441 29.3846 8.40513 28.8251 8.4059C28.2911 8.40513 27.8441 8.22244 27.4709 7.8521C27.0984 7.48099 26.9143 7.02798 26.9136 6.47793C26.9143 5.92762 27.0984 5.47486 27.4709 5.10401C27.8441 4.73341 28.2911 4.55046 28.8251 4.5497C29.0891 4.5497 29.3406 4.60136 29.5804 4.70437C29.8205 4.80814 30.0101 4.94413 30.1514 5.11297L30.1999 5.07198L30.1551 5.02706L29.821 5.36264L29.8658 5.40731L29.9145 5.36664C29.6512 5.05012 29.2815 4.89056 28.8251 4.89151C28.4101 4.891 28.045 5.0397 27.7431 5.33265C27.4382 5.62654 27.285 6.01347 27.2855 6.47793C27.285 6.94238 27.4382 7.32931 27.7431 7.62321C28.045 7.91615 28.4101 8.06485 28.8251 8.06434C29.2636 8.0651 29.6374 7.9159 29.9316 7.62003C30.1281 7.4224 30.2395 7.14865 30.2687 6.8083L30.2746 6.73929H28.8884V6.40841H30.6671V6.34486L30.6047 6.35605C30.6221 6.45238 30.6303 6.54395 30.6303 6.6326H30.6936H30.757C30.757 6.53601 30.748 6.43675 30.7295 6.33349L30.7201 6.28132H28.7617V6.80284V6.86638H30.2055V6.80284L30.1424 6.79737C30.1145 7.11713 30.013 7.3579 29.842 7.53018C29.5698 7.80221 29.2357 7.93649 28.8251 7.93725C28.4397 7.93674 28.1128 7.80368 27.831 7.53189C27.5518 7.26106 27.4129 6.91531 27.4122 6.47793C27.4129 6.04054 27.5518 5.69479 27.831 5.42396C28.1128 5.15218 28.4397 5.01911 28.8251 5.0186C29.2535 5.01962 29.577 5.16158 29.8173 5.4483L29.8618 5.50142L30.2447 5.11691L30.2857 5.07573L30.2484 5.03125C30.0927 4.84513 29.8853 4.69738 29.6304 4.5877C29.375 4.4777 29.1055 4.42261 28.8251 4.42261C28.2618 4.4221 27.7758 4.62068 27.3815 5.01365C26.9858 5.40585 26.7864 5.89884 26.7869 6.47793C26.7864 7.05676 26.9858 7.55 27.3818 7.94246C27.7758 8.33517 28.2618 8.5335 28.8251 8.53299C29.4116 8.5335 29.8982 8.3381 30.2674 7.94913L30.2216 7.90522L30.2664 7.95015C30.5946 7.62124 30.7574 7.17693 30.757 6.6326H30.6936Z" fill="white"/>
<path d="M33.6142 5.03994H31.883V6.24883H33.4442V6.707H31.883V7.91588H33.6142V8.38428H31.395V4.57155H33.6142V5.03994Z" fill="white"/>
<path d="M33.6138 5.03995V4.9764H31.8193V6.31238H33.3805V6.64326L31.8193 6.64346V7.97944H33.5505V8.32074H31.458V4.6351H33.5505V5.03995H33.6138V4.9764V5.03995H33.6772V4.57155V4.50801H31.3313V8.44783H33.6772V7.91589V7.85234H31.946V6.77055H33.5072V6.24884V6.18529H31.946V5.10349H33.6772V5.03995H33.6138Z" fill="white"/>
<path d="M35.6736 8.38428H35.1848V5.03994H34.123V4.57155H36.7353V5.03994H35.6736V8.38428Z" fill="white"/>
<path d="M35.6742 8.38428V8.32074H35.2487V4.9764H34.187V4.6351H36.6725V4.9764H35.6108V8.38428H35.6742V8.32074V8.38428H35.7375V5.10349H36.7992V4.57155V4.50801H34.0603V5.03995V5.10349H35.122V8.44783H35.6742H35.7375V8.38428H35.6742Z" fill="white"/>
<path d="M38.6252 8.38428V4.57155H39.1135V8.38428H38.6252Z" fill="white"/>
<path d="M38.6256 8.38428H38.689V4.6351H39.0505V8.32074H38.6256V8.38428H38.689H38.6256V8.44783H39.1139H39.1772V4.50801H38.6256H38.5623V8.44783H38.6256V8.38428Z" fill="white"/>
<path d="M41.2804 8.38428H40.7916V5.03994H39.73V4.57155H42.3421V5.03994H41.2804V8.38428Z" fill="white"/>
<path d="M41.2805 8.38428V8.32074H40.8551V4.9764H39.7935V4.6351H42.2789V4.9764H41.2172V8.38428H41.2805V8.32074V8.38428H41.3439V5.10349H42.4056V4.57155V4.50801H39.6667V5.03995V5.10349H40.7284V8.44783H41.2805H41.3439V8.38428H41.2805Z" fill="white"/>
<path d="M44.8606 7.57238C45.1419 7.85808 45.4862 8.0008 45.8933 8.0008C46.3004 8.0008 46.6449 7.85808 46.9258 7.57238C47.2074 7.28668 47.3485 6.92148 47.3485 6.47794C47.3485 6.03439 47.2074 5.66919 46.9258 5.38349C46.6449 5.09779 46.3004 4.95507 45.8933 4.95507C45.4862 4.95507 45.1419 5.09779 44.8606 5.38349C44.5796 5.66919 44.4386 6.03439 44.4386 6.47794C44.4386 6.92148 44.5796 7.28668 44.8606 7.57238ZM47.2871 7.89157C46.9134 8.27704 46.4486 8.46945 45.8933 8.46945C45.3374 8.46945 44.8729 8.27704 44.5 7.89157C44.126 7.50655 43.9399 7.03523 43.9399 6.47794C43.9399 5.92064 44.126 5.44926 44.5 5.0643C44.8729 4.67877 45.3374 4.48617 45.8933 4.48617C46.4457 4.48617 46.9092 4.67979 47.2847 5.06678C47.6596 5.45377 47.8472 5.92414 47.8472 6.47794C47.8472 7.03523 47.6601 7.50655 47.2871 7.89157Z" fill="white"/>
<path d="M44.8607 7.57236L44.8156 7.61703C45.1075 7.91417 45.4715 8.06509 45.8934 8.06433C46.3151 8.06509 46.6797 7.91417 46.971 7.61703C47.2647 7.31964 47.4125 6.93487 47.412 6.47791C47.4125 6.02096 47.2647 5.63619 46.971 5.3388C46.6797 5.04166 46.3151 4.89074 45.8934 4.8915C45.4715 4.89074 45.1075 5.04166 44.8156 5.3388C44.5226 5.63619 44.3746 6.02096 44.3754 6.47791C44.3746 6.93487 44.5226 7.31964 44.8156 7.61703L44.8607 7.57236L44.9057 7.52768C44.637 7.25336 44.5026 6.90831 44.5021 6.47791C44.5026 6.04752 44.637 5.70247 44.9057 5.42814C45.177 5.15388 45.5009 5.01935 45.8934 5.01859C46.2857 5.01935 46.6104 5.15388 46.8809 5.42814C47.1502 5.70247 47.2846 6.04752 47.2851 6.47791C47.2846 6.90831 47.1502 7.25336 46.8809 7.52768C46.6104 7.80195 46.2857 7.93647 45.8934 7.93723C45.5009 7.93647 45.177 7.80195 44.9057 7.52768L44.8607 7.57236ZM47.2873 7.89155L47.242 7.84738C46.8787 8.22071 46.4344 8.40512 45.8934 8.40588C45.3522 8.40512 44.9079 8.22071 44.5454 7.84738L44.5437 7.84541L44.5454 7.84738C44.1828 7.47278 44.0039 7.02104 44.0034 6.47791C44.0039 5.93479 44.1828 5.48305 44.5454 5.10844C44.9079 4.73511 45.3522 4.55045 45.8934 4.54969C46.431 4.55045 46.8742 4.73588 47.2395 5.11118C47.6033 5.48749 47.7832 5.93854 47.784 6.47791C47.7832 7.02104 47.6038 7.47278 47.242 7.84738L47.2873 7.89155L47.3328 7.93571C47.7169 7.54008 47.9111 7.04931 47.9107 6.47791C47.9111 5.90975 47.7161 5.42001 47.3303 5.02259C46.9443 4.62366 46.4607 4.4219 45.8934 4.4226C45.3232 4.4219 44.8382 4.6227 44.4546 5.02012V5.01986C44.0698 5.41575 43.8762 5.90651 43.8767 6.47791C43.8762 7.04931 44.0698 7.54008 44.4546 7.93596L44.4563 7.93774L44.4546 7.93571C44.8382 8.33312 45.3232 8.53348 45.8934 8.53297C46.4634 8.53348 46.9484 8.33312 47.3328 7.93571L47.2873 7.89155Z" fill="white"/>
<path d="M48.5325 8.38428V4.57155H49.1269L50.9744 7.5376H50.9954L50.9744 6.80282V4.57155H51.4632V8.38428H50.9534L49.0205 5.27449H48.9995L49.0205 6.00952V8.38428H48.5325Z" fill="white"/>
<path d="M48.5328 8.38428H48.5962V4.6351H49.0921L50.9396 7.60115H50.9958H51.0609L51.0381 6.80187V4.6351H51.4002V8.32074H50.9889L49.056 5.21095H48.9998H48.9348L48.9575 6.01054V8.32074H48.5328V8.38428H48.5962H48.5328V8.44783H49.0209H49.0842V6.00851L49.0632 5.27278L48.9998 5.27449V5.33804H49.0209V5.27449L48.9671 5.3083L50.9186 8.44783H51.4635H51.5269V4.50801H50.9748H50.9114V6.80359L50.9324 7.53932L50.9958 7.5376V7.47406H50.9748V7.5376L51.0285 7.50386L49.1624 4.50801H48.5328H48.4695V8.44783H48.5328V8.38428Z" fill="white"/>
<path d="M68.4018 19.187H69.584V11.2431H68.4018V19.187ZM79.05 14.1046L77.6948 17.5487H77.6543L76.2477 14.1046H74.9743L77.0834 18.9184L75.8809 21.596H77.1145L80.3646 14.1046H79.05ZM72.3457 18.2847C71.9579 18.2847 71.4181 18.0906 71.4181 17.6101C71.4181 16.9969 72.091 16.7619 72.6713 16.7619C73.1915 16.7619 73.4354 16.8743 73.7515 17.0277C73.6597 17.7635 73.028 18.2847 72.3457 18.2847ZM72.4882 13.9308C71.6323 13.9308 70.7459 14.3091 70.3791 15.1472L71.4283 15.5865C71.6526 15.1472 72.0701 15.0039 72.5085 15.0039C73.1199 15.0039 73.7414 15.3721 73.7515 16.0261V16.1078C73.5374 15.9851 73.0793 15.8012 72.5186 15.8012C71.3877 15.8012 70.2359 16.4245 70.2359 17.5897C70.2359 18.6526 71.1635 19.3374 72.2025 19.3374C72.9976 19.3374 73.4354 18.9797 73.711 18.5608H73.7515V19.1739H74.8926V16.1281C74.8926 14.718 73.8434 13.9308 72.4882 13.9308ZM65.1821 15.0717H63.5006V12.3487H65.1821C66.0659 12.3487 66.5676 13.0826 66.5676 13.7102C66.5676 14.3258 66.0659 15.0717 65.1821 15.0717ZM65.1516 11.2431H62.319V19.187H63.5006V16.1773H65.1516C66.4618 16.1773 67.7499 15.2258 67.7499 13.7102C67.7499 12.1945 66.4618 11.2431 65.1516 11.2431ZM49.7049 18.2862C48.8882 18.2862 48.2044 17.6003 48.2044 16.6583C48.2044 15.7064 48.8882 15.0102 49.7049 15.0102C50.5112 15.0102 51.144 15.7064 51.144 16.6583C51.144 17.6003 50.5112 18.2862 49.7049 18.2862ZM51.0623 14.5495H51.0215C50.7562 14.2322 50.2456 13.9455 49.6027 13.9455C48.2554 13.9455 47.0204 15.133 47.0204 16.6583C47.0204 18.1735 48.2554 19.3508 49.6027 19.3508C50.2456 19.3508 50.7562 19.0641 51.0215 18.7367H51.0623V19.1257C51.0623 20.1598 50.5112 20.7126 49.6232 20.7126C48.8986 20.7126 48.4494 20.1903 48.2655 19.7502L47.2348 20.1802C47.5308 20.8968 48.3168 21.7773 49.6232 21.7773C51.0113 21.7773 52.1851 20.9581 52.1851 18.9619V14.1093H51.0623V14.5495ZM53.0016 19.187H54.1856V11.2428H53.0016V19.187ZM55.931 16.5663C55.9004 15.522 56.7374 14.9898 57.3395 14.9898C57.8093 14.9898 58.2072 15.2251 58.3396 15.5632L55.931 16.5663ZM59.6055 15.6654C59.3812 15.0613 58.697 13.9455 57.2986 13.9455C55.9105 13.9455 54.7572 15.0409 54.7572 16.6482C54.7572 18.1634 55.9004 19.3508 57.4313 19.3508C58.6665 19.3508 59.3812 18.5932 59.6771 18.1531L58.7584 17.5388C58.4524 17.9893 58.0336 18.2862 57.4313 18.2862C56.8292 18.2862 56.4006 18.0097 56.1248 17.4673L59.7278 15.9725L59.6055 15.6654ZM30.9002 14.7748V15.9213H33.6355C33.5539 16.5663 33.3395 17.0371 33.0129 17.3648C32.6149 17.7642 31.9923 18.2043 30.9002 18.2043C29.216 18.2043 27.8994 16.8428 27.8994 15.1536C27.8994 13.4644 29.216 12.1027 30.9002 12.1027C31.8086 12.1027 32.4719 12.4611 32.9619 12.9218L33.7682 12.1131C33.0844 11.4578 32.1759 10.9562 30.9002 10.9562C28.5933 10.9562 26.6541 12.8399 26.6541 15.1536C26.6541 17.4673 28.5933 19.3508 30.9002 19.3508C32.1455 19.3508 33.0844 18.9415 33.8192 18.1735C34.5745 17.4159 34.8094 16.3513 34.8094 15.4915C34.8094 15.2251 34.7891 14.9796 34.748 14.7748H30.9002ZM37.9193 18.2862C37.1025 18.2862 36.3982 17.6105 36.3982 16.6482C36.3982 15.6756 37.1025 15.0102 37.9193 15.0102C38.7357 15.0102 39.44 15.6756 39.44 16.6482C39.44 17.6105 38.7357 18.2862 37.9193 18.2862ZM37.9193 13.9455C36.4289 13.9455 35.2142 15.0818 35.2142 16.6482C35.2142 18.2043 36.4289 19.3508 37.9193 19.3508C39.4093 19.3508 40.624 18.2043 40.624 16.6482C40.624 15.0818 39.4093 13.9455 37.9193 13.9455ZM43.8197 18.2862C43.0033 18.2862 42.2989 17.6105 42.2989 16.6482C42.2989 15.6756 43.0033 15.0102 43.8197 15.0102C44.6362 15.0102 45.3405 15.6756 45.3405 16.6482C45.3405 17.6105 44.6362 18.2862 43.8197 18.2862ZM43.8197 13.9455C42.3294 13.9455 41.115 15.0818 41.115 16.6482C41.115 18.2043 42.3294 19.3508 43.8197 19.3508C45.3098 19.3508 46.5245 18.2043 46.5245 16.6482C46.5245 15.0818 45.3098 13.9455 43.8197 13.9455Z" fill="white"/>
<path d="M7.31001 20.7055L7.26294 20.6603C7.07857 20.4646 6.96973 20.1608 6.96973 19.7674V19.86V5.80626C6.96973 5.80499 6.96973 5.80404 6.96973 5.80302C6.96973 5.80423 6.96973 5.80525 6.96973 5.80652V5.89936C6.96973 5.47335 7.09663 5.15244 7.30925 4.96003L15.1589 12.833L7.31001 20.7055ZM6.96973 5.80226C6.96973 5.76725 6.97068 5.73325 6.97245 5.69976C6.97068 5.73299 6.96973 5.76725 6.96973 5.80226ZM6.97245 5.69824C6.97245 5.69779 6.97245 5.69728 6.97264 5.69677C6.97245 5.69728 6.97245 5.69779 6.97245 5.69824ZM6.97264 5.69379C6.97264 5.69353 6.97264 5.69328 6.97264 5.69302C6.97264 5.69328 6.97264 5.69353 6.97264 5.69379Z" fill="url(#paint0_linear_3283_70929)"/>
<path d="M17.7756 15.5513L17.8352 15.5173L20.9352 13.7506C21.2307 13.5821 21.4277 13.3778 21.526 13.1616C21.428 13.3778 21.2309 13.5824 20.9352 13.7509L17.8352 15.5175L17.7756 15.5513ZM17.7763 15.4582L15.1594 12.833L17.7761 10.2082L20.9352 12.0083C21.3363 12.237 21.5616 12.5316 21.5992 12.8327C21.5992 12.833 21.5992 12.8335 21.5992 12.8339C21.5616 13.1343 21.3363 13.4292 20.9352 13.6578L17.7763 15.4582Z" fill="url(#paint1_linear_3283_70929)"/>
<path d="M7.869 21.0053C7.64972 21.0053 7.45839 20.9338 7.30919 20.7987L7.30944 20.7985C7.45864 20.9335 7.65023 21.0053 7.8695 21.0053C7.88851 21.0053 7.90783 21.0048 7.92741 21.0038C7.90758 21.0048 7.888 21.0053 7.869 21.0053ZM7.86925 20.9122C7.64998 20.9124 7.45864 20.8407 7.30944 20.7056V20.7055L15.1583 12.833L17.7752 15.4582L8.57902 20.699C8.32459 20.8437 8.08352 20.9122 7.86925 20.9122ZM7.30722 20.797C7.29335 20.7844 7.27973 20.771 7.26636 20.7571L7.30722 20.797Z" fill="url(#paint2_linear_3283_70929)"/>
<path d="M15.159 12.833L7.30933 4.96004C7.45853 4.82526 7.64961 4.75377 7.86863 4.75377C8.08347 4.75377 8.32473 4.82253 8.57967 4.96748L17.7756 10.2083L15.159 12.833ZM17.8348 10.149L8.57967 4.8747C8.32473 4.72969 8.08347 4.66093 7.86863 4.66093C7.86762 4.66093 7.86692 4.66093 7.86591 4.66093C7.86717 4.66093 7.86812 4.66093 7.86964 4.66093C8.08398 4.66093 8.32498 4.72943 8.57967 4.87444L17.8348 10.149Z" fill="url(#paint3_linear_3283_70929)"/>
<path d="M7.92774 21.0038C8.12693 20.9924 8.34747 20.9236 8.57935 20.7918L17.7748 15.5513L8.57935 20.7918C8.34766 20.9239 8.12693 20.9924 7.92774 21.0038ZM7.30952 20.7987L7.30755 20.797C7.30825 20.7975 7.30901 20.7982 7.30952 20.7987ZM7.26669 20.7571L7.2627 20.7531V20.7529C7.26422 20.7543 7.26542 20.7558 7.26669 20.7571Z" fill="black"/>
<path d="M17.7751 15.5513L17.8348 15.5173L17.7751 15.5513Z" fill="url(#paint4_linear_3283_70929)"/>
<path d="M7.87008 21.0053C7.6508 21.0053 7.45922 20.9335 7.31001 20.7985L7.30976 20.7987C7.30925 20.7982 7.30849 20.7975 7.3078 20.797L7.26693 20.7571C7.26566 20.7558 7.26446 20.7543 7.26294 20.7529L7.31001 20.7056C7.45922 20.8407 7.65055 20.9124 7.86982 20.9122C8.08409 20.9122 8.32516 20.8437 8.5796 20.699L17.7758 15.4582L17.8347 15.5173L17.775 15.5513L8.5796 20.7918C8.34772 20.9236 8.12718 20.9924 7.92798 21.0038C7.90841 21.0048 7.88908 21.0053 7.87008 21.0053Z" fill="url(#paint5_linear_3283_70929)"/>
<path d="M7.26245 20.7531C7.07808 20.5574 6.96924 20.2536 6.96924 19.8602V19.86C6.96924 20.2536 7.07808 20.5572 7.26245 20.7528V20.7531Z" fill="black"/>
<path d="M7.26294 20.7529C7.07857 20.5572 6.96973 20.2536 6.96973 19.86V19.7674C6.96973 20.1608 7.07857 20.4646 7.26294 20.6603L7.31001 20.7054L7.26294 20.7529Z" fill="url(#paint6_linear_3283_70929)"/>
<path d="M7.26294 20.7529L7.31001 20.7054V20.7056L7.26294 20.7529Z" fill="url(#paint7_linear_3283_70929)"/>
<path d="M21.5256 13.1616C21.5744 13.0544 21.5989 12.9442 21.5989 12.8339C21.5989 12.8337 21.5989 12.8335 21.5989 12.8335C21.5989 12.9439 21.5744 13.0541 21.5256 13.1616Z" fill="black"/>
<path d="M17.8346 15.5172L17.7756 15.4581L20.9345 13.6578C21.3357 13.4292 21.5609 13.1343 21.5985 12.8339C21.5985 12.9442 21.574 13.0543 21.5253 13.1616C21.427 13.3778 21.23 13.5821 20.9345 13.7506L17.8346 15.5172Z" fill="url(#paint8_linear_3283_70929)"/>
<path d="M21.5989 12.833V12.8327C21.5987 12.5003 21.3772 12.168 20.9349 11.9158L17.835 10.1491H17.8347L17.835 10.1489L20.9349 11.9155C21.3777 12.1677 21.5994 12.5006 21.5989 12.833Z" fill="#404040"/>
<path d="M21.5975 12.8327C21.5599 12.5316 21.3347 12.237 20.9335 12.0083L17.7744 10.2082L17.8333 10.1491H17.8336L20.9335 11.9157C21.3758 12.168 21.5973 12.5003 21.5975 12.8327Z" fill="url(#paint9_linear_3283_70929)"/>
<path d="M6.96924 5.80299C6.96924 5.80274 6.96924 5.80249 6.96924 5.80223C6.96924 5.80249 6.96924 5.80274 6.96924 5.80299ZM6.97196 5.69973C6.97196 5.69922 6.97196 5.69872 6.97196 5.69821C6.97196 5.69872 6.97196 5.69922 6.97196 5.69973ZM6.97215 5.69675C6.97215 5.69573 6.97215 5.69478 6.97215 5.69376C6.97215 5.69478 6.97215 5.69573 6.97215 5.69675ZM6.97215 5.693C7.00883 5.04019 7.36274 4.66311 7.86338 4.66089C7.64632 4.66216 7.45727 4.73365 7.30927 4.86741V4.86716L7.30749 4.86894C7.29191 4.88304 7.27708 4.89798 7.26245 4.91336C7.09614 5.08982 6.99122 5.35417 6.97215 5.693Z" fill="#404040"/>
<path d="M6.96973 5.89935V5.80651C6.96973 5.80524 6.96973 5.80423 6.96973 5.80302C6.96973 5.80276 6.96973 5.80251 6.96973 5.80226C6.96973 5.76724 6.97068 5.73299 6.97245 5.69976C6.97245 5.69925 6.97245 5.69874 6.97245 5.69823C6.97245 5.69779 6.97245 5.69728 6.97264 5.69677C6.97264 5.69575 6.97264 5.6948 6.97264 5.69378C6.97264 5.69353 6.97264 5.69328 6.97264 5.69302C6.99171 5.3542 7.09663 5.08985 7.26294 4.91338L7.30925 4.96002C7.09663 5.15244 6.96973 5.47334 6.96973 5.89935ZM7.30798 4.86896L7.30976 4.86718C7.30925 4.86795 7.30849 4.86845 7.30798 4.86896Z" fill="url(#paint10_linear_3283_70929)"/>
<path d="M17.7756 10.2082L8.5796 4.96745C8.32465 4.82251 8.0834 4.75375 7.86856 4.75375C7.64954 4.75375 7.45846 4.82524 7.30925 4.96002L7.26294 4.91337C7.27757 4.898 7.2924 4.88306 7.30799 4.86896C7.30849 4.86845 7.30925 4.86794 7.30976 4.86743C7.45776 4.73367 7.64681 4.66218 7.86387 4.66091C7.86438 4.66091 7.86507 4.66091 7.86583 4.66091C7.86685 4.66091 7.86754 4.66091 7.86856 4.66091C8.0834 4.66091 8.32465 4.72966 8.5796 4.87467L17.8347 10.1489L17.8345 10.1491L17.7756 10.2082Z" fill="url(#paint11_linear_3283_70929)"/>
<defs>
<linearGradient id="paint0_linear_3283_70929" x1="14.4629" y1="5.65801" x2="3.79839" y2="16.2906" gradientUnits="userSpaceOnUse">
<stop stop-color="#00A0FF"/>
<stop offset="0.00657445" stop-color="#00A1FF"/>
<stop offset="0.2601" stop-color="#00BEFF"/>
<stop offset="0.5122" stop-color="#00D2FF"/>
<stop offset="0.7604" stop-color="#00DFFF"/>
<stop offset="1" stop-color="#00E3FF"/>
</linearGradient>
<linearGradient id="paint1_linear_3283_70929" x1="22.088" y1="12.8334" x2="6.75783" y2="12.8334" gradientUnits="userSpaceOnUse">
<stop stop-color="#FFE000"/>
<stop offset="0.4087" stop-color="#FFBD00"/>
<stop offset="0.7754" stop-color="#FFA500"/>
<stop offset="1" stop-color="#FF9C00"/>
</linearGradient>
<linearGradient id="paint2_linear_3283_70929" x1="16.3802" y1="14.2916" x2="1.91838" y2="28.7102" gradientUnits="userSpaceOnUse">
<stop stop-color="#FF3A44"/>
<stop offset="1" stop-color="#C31162"/>
</linearGradient>
<linearGradient id="paint3_linear_3283_70929" x1="5.27478" y1="0.235369" x2="11.7326" y2="6.67386" gradientUnits="userSpaceOnUse">
<stop stop-color="#32A071"/>
<stop offset="0.0685" stop-color="#2DA771"/>
<stop offset="0.4762" stop-color="#15CF74"/>
<stop offset="0.8009" stop-color="#06E775"/>
<stop offset="1" stop-color="#00F076"/>
</linearGradient>
<linearGradient id="paint4_linear_3283_70929" x1="22.0875" y1="12.8332" x2="6.75764" y2="12.8332" gradientUnits="userSpaceOnUse">
<stop stop-color="#CCB300"/>
<stop offset="0.4087" stop-color="#CC9700"/>
<stop offset="0.7754" stop-color="#CC8400"/>
<stop offset="1" stop-color="#CC7D00"/>
</linearGradient>
<linearGradient id="paint5_linear_3283_70929" x1="16.3808" y1="14.2916" x2="1.91895" y2="28.7102" gradientUnits="userSpaceOnUse">
<stop stop-color="#CC2E36"/>
<stop offset="1" stop-color="#9C0E4E"/>
</linearGradient>
<linearGradient id="paint6_linear_3283_70929" x1="14.4629" y1="5.658" x2="3.79838" y2="16.2906" gradientUnits="userSpaceOnUse">
<stop stop-color="#008DE0"/>
<stop offset="0.00657445" stop-color="#008DE0"/>
<stop offset="0.2601" stop-color="#00A7E0"/>
<stop offset="0.5122" stop-color="#00B8E0"/>
<stop offset="0.7604" stop-color="#00C4E0"/>
<stop offset="1" stop-color="#00C7E0"/>
</linearGradient>
<linearGradient id="paint7_linear_3283_70929" x1="16.3808" y1="14.2914" x2="1.91871" y2="28.7101" gradientUnits="userSpaceOnUse">
<stop stop-color="#E0333C"/>
<stop offset="1" stop-color="#AB0F56"/>
</linearGradient>
<linearGradient id="paint8_linear_3283_70929" x1="22.0873" y1="12.8333" x2="6.75713" y2="12.8333" gradientUnits="userSpaceOnUse">
<stop stop-color="#E0C500"/>
<stop offset="0.4087" stop-color="#E0A600"/>
<stop offset="0.7754" stop-color="#E09100"/>
<stop offset="1" stop-color="#E08900"/>
</linearGradient>
<linearGradient id="paint9_linear_3283_70929" x1="22.0863" y1="12.8333" x2="6.75617" y2="12.8333" gradientUnits="userSpaceOnUse">
<stop stop-color="#FFE840"/>
<stop offset="0.4087" stop-color="#FFCE40"/>
<stop offset="0.7754" stop-color="#FFBC40"/>
<stop offset="1" stop-color="#FFB540"/>
</linearGradient>
<linearGradient id="paint10_linear_3283_70929" x1="14.4629" y1="5.65801" x2="3.79839" y2="16.2906" gradientUnits="userSpaceOnUse">
<stop stop-color="#40B8FF"/>
<stop offset="0.00657445" stop-color="#40B9FF"/>
<stop offset="0.2601" stop-color="#40CEFF"/>
<stop offset="0.5122" stop-color="#40DDFF"/>
<stop offset="0.7604" stop-color="#40E7FF"/>
<stop offset="1" stop-color="#40EAFF"/>
</linearGradient>
<linearGradient id="paint11_linear_3283_70929" x1="5.27471" y1="0.23535" x2="11.7325" y2="6.67384" gradientUnits="userSpaceOnUse">
<stop stop-color="#65B895"/>
<stop offset="0.0685" stop-color="#62BD95"/>
<stop offset="0.4762" stop-color="#50DB97"/>
<stop offset="0.8009" stop-color="#44ED98"/>
<stop offset="1" stop-color="#40F498"/>
</linearGradient>
</defs>
</svg>
