<svg width="104" height="48" viewBox="0 0 104 48" fill="none" xmlns="http://www.w3.org/2000/svg">
<path d="M28.268 11.3643C28.268 11.3643 28.268 11.268 28.268 11.3643C26.6464 9.43859 23.9755 8.57201 20.3507 8.57201H5.85152L0.891281 44.1019H10.144L11.6703 33.1252H14.6273C18.2521 33.1252 21.3046 32.4512 23.6893 31.1994C23.5939 30.1403 23.4985 29.0811 23.4985 27.9257C23.4985 21.7633 25.1201 16.275 28.268 11.3643ZM14.4365 26.0962H12.6241L14.1504 15.6972H16.4397C19.3968 15.6972 20.8276 17.0453 20.8276 19.645C20.8276 24.4594 18.4429 26.0962 14.4365 26.0962Z" fill="white"/>
<path d="M103.053 8.57188H92.6557L78.9197 23.0149L80.9228 8.57188H71.6701V8.66817C73.4825 12.0382 74.341 15.986 74.341 20.5115C74.341 28.1181 71.9562 34.7619 67.2822 40.2503L66.7098 44.1018H75.9626L77.3934 33.7028L81.3044 29.9476L86.9323 44.1018H97.3298L88.8401 23.4964L103.053 8.57188Z" fill="white"/>
<path opacity="0.7" d="M66.4231 6.26099C63.0845 2.69837 58.4104 0.868919 52.4009 0.868919C45.1513 0.868919 39.0464 3.56495 33.9908 8.86073C28.9352 14.1565 26.4551 20.6077 26.4551 28.0218C26.4551 33.8953 28.0767 38.6134 31.4153 42.2723C34.7539 45.8349 39.428 47.6644 45.4375 47.6644C52.6871 47.6644 58.792 44.9683 63.8476 39.6726C68.9032 34.3768 71.3833 27.9255 71.3833 20.5115C71.3833 14.5417 69.7617 9.8236 66.4231 6.26099ZM56.6934 33.5102C54.0225 36.7839 50.6839 38.5171 46.5822 38.5171C40.7634 38.5171 37.234 34.0879 37.234 27.3478C37.234 22.3409 38.4741 18.2006 41.145 14.9268C43.8159 11.5568 47.1545 9.91989 51.2562 9.91989C57.1704 9.91989 60.6044 14.3491 60.6044 21.0892C60.6044 25.9998 59.2689 30.2364 56.6934 33.5102Z" fill="white"/>
</svg>
