<svg width="242" height="48" viewBox="0 0 242 48" fill="none" xmlns="http://www.w3.org/2000/svg">
<g clip-path="url(#clip0_3283_70654)">
<path d="M135.962 13.1937C135.771 14.5417 134.913 15.986 133.863 16.7563C132.528 17.7192 131.288 17.9117 129.666 17.9117H128.14L127.377 22.1484H124.038L126.614 8.5719H131.002C132.242 8.5719 134.054 8.5719 135.008 9.53477C135.676 10.2088 136.057 11.1716 136.057 12.2308C136.057 12.5197 136.057 12.9048 135.962 13.1937ZM130.811 11.6531H129.38L128.808 14.9268H130.239C131.383 14.9268 132.337 14.5417 132.623 13.29C132.623 13.1937 132.623 13.0011 132.623 12.9048C132.719 11.7494 131.669 11.6531 130.811 11.6531Z" fill="white"/>
<path d="M145.12 22.2446H142.067L142.258 21.1855C141.59 22.2446 140.255 22.6298 139.015 22.6298C136.439 22.6298 134.818 20.8966 134.818 18.3932C134.818 14.9268 137.489 11.7494 141.018 11.7494C142.067 11.7494 143.307 12.1345 143.689 13.1937L143.88 12.1345H146.932L145.12 22.2446ZM141.018 14.4454C139.396 14.4454 137.965 15.8897 137.965 17.5266C137.965 18.7783 138.729 19.6449 140.064 19.6449C141.686 19.6449 143.116 18.2006 143.116 16.5637C143.116 15.312 142.258 14.4454 141.018 14.4454Z" fill="white"/>
<path d="M157.329 20.9929C157.138 22.1483 156.852 23.4001 156.089 24.3629C154.849 25.9998 152.464 26.7701 150.556 26.7701C148.934 26.7701 147.217 26.2887 146.454 24.7481C146.264 24.2666 146.168 23.7852 146.168 23.3038V23.1112H149.698C149.888 23.8815 150.556 24.1703 151.319 24.1703C153.132 24.1703 154.086 22.8223 154.372 21.0892C153.704 22.052 152.464 22.5335 151.319 22.5335C148.839 22.5335 147.122 20.8003 147.122 18.2968C147.122 14.8305 149.888 11.653 153.322 11.653C154.276 11.653 155.421 11.9419 155.898 12.9048L156.089 11.9419H159.141L157.329 20.9929ZM153.036 14.5417C151.415 14.5417 150.079 16.0822 150.079 17.6228C150.079 18.7783 150.842 19.6449 152.082 19.6449C153.799 19.6449 155.135 18.2006 155.135 16.5637C155.039 15.3119 154.276 14.5417 153.036 14.5417Z" fill="white"/>
<path d="M169.348 18.008H161.813V18.1043C161.813 19.2597 162.671 19.9337 163.816 19.9337C164.674 19.9337 165.247 19.5486 165.819 18.9709H168.871C167.727 20.8966 165.628 22.5335 163.339 22.5335C160.763 22.5335 158.855 20.704 158.855 18.1043C158.855 14.7342 161.908 11.653 165.247 11.653C167.917 11.653 169.634 13.4825 169.634 16.0822C169.634 16.7563 169.539 17.4303 169.348 18.008ZM164.77 14.2528C163.625 14.2528 162.576 14.9268 162.194 15.986H166.773C166.677 14.8305 165.819 14.2528 164.77 14.2528Z" fill="white"/>
<path d="M178.219 14.8305H175.262C175.262 14.7343 175.262 14.7343 175.262 14.638C175.262 14.1565 174.88 14.0603 174.404 14.0603C173.927 14.0603 173.354 14.3491 173.354 14.8305C173.354 16.1786 177.742 15.6008 177.742 18.3932C177.742 20.9929 175.262 22.4372 172.877 22.4372C170.97 22.4372 169.348 21.4743 169.348 19.4523C169.348 19.356 169.348 19.2597 169.348 19.0672H172.4V19.1635C172.4 19.7412 172.877 20.03 173.354 20.03C173.927 20.03 174.594 19.7412 174.594 19.0672C174.594 17.7192 170.206 18.008 170.206 15.4083C170.206 15.2157 170.206 15.1194 170.206 14.9268C170.588 12.8085 172.782 11.5568 174.785 11.5568C176.597 11.5568 178.124 12.4234 178.124 14.3491C178.219 14.638 178.219 14.7343 178.219 14.8305Z" fill="white"/>
<path d="M188.522 22.2446H185.469L185.66 21.1855C184.992 22.2446 183.657 22.6298 182.417 22.6298C179.841 22.6298 178.219 20.8966 178.219 18.3932C178.219 14.9268 180.89 11.7494 184.42 11.7494C185.469 11.7494 186.709 12.1345 187.091 13.1937L187.281 12.1345H190.334L188.522 22.2446ZM184.42 14.4454C182.798 14.4454 181.367 15.8897 181.367 17.5266C181.367 18.7783 182.13 19.6449 183.466 19.6449C185.087 19.6449 186.518 18.2006 186.518 16.5637C186.518 15.312 185.66 14.4454 184.42 14.4454Z" fill="white"/>
<path opacity="0.7" d="M130.62 33.5102L124.897 41.2132H129.189L128.617 44.2944H120.127L120.509 41.9835L126.709 33.7028H122.035L122.608 30.6216H131.097L130.62 33.5102Z" fill="white"/>
<path opacity="0.7" d="M140.064 40.0577H132.528V40.154C132.528 41.3094 133.387 41.9834 134.531 41.9834C135.39 41.9834 135.962 41.5983 136.534 41.0206H139.587C138.442 42.9463 136.344 44.5832 134.054 44.5832C131.479 44.5832 129.571 42.7537 129.571 40.154C129.571 36.7839 132.624 33.7028 135.962 33.7028C138.633 33.7028 140.35 35.5322 140.35 38.132C140.35 38.806 140.255 39.48 140.064 40.0577ZM135.485 36.3025C134.341 36.3025 133.291 36.9765 132.91 38.0357H137.488C137.393 36.8802 136.534 36.3025 135.485 36.3025Z" fill="white"/>
<path opacity="0.7" d="M147.027 36.784C145.596 36.784 144.547 37.0728 144.356 38.6134C143.974 40.4429 143.688 42.3686 143.307 44.1981H140.254L142.162 33.9917H145.024L144.833 35.0508C145.501 33.9917 146.359 33.6065 147.599 33.6065L147.027 36.784Z" fill="white"/>
<path opacity="0.7" d="M157.424 39.1911C156.852 42.2723 154.086 44.5832 150.938 44.5832C148.267 44.5832 146.359 42.9463 146.359 40.154C146.359 39.7688 146.359 39.48 146.455 39.0948C147.027 36.0136 149.793 33.7028 152.846 33.7028C155.516 33.7028 157.424 35.3396 157.424 38.132C157.52 38.5171 157.424 38.806 157.424 39.1911ZM152.369 36.5914C150.747 36.5914 149.412 38.132 149.412 39.6725C149.412 40.828 150.27 41.6946 151.415 41.6946C153.036 41.6946 154.372 40.154 154.372 38.6134C154.372 37.458 153.609 36.5914 152.369 36.5914Z" fill="white"/>
<path d="M170.493 37.4579L174.022 44.2943H170.016L167.44 38.4208L166.391 44.2943H162.957L165.437 30.7179H168.871L167.726 36.8802L172.687 30.7179H176.312L170.493 37.4579Z" fill="white"/>
<path d="M184.992 39.1911C184.42 42.2723 181.654 44.5832 178.506 44.5832C175.835 44.5832 173.927 42.9463 173.927 40.154C173.927 39.7688 173.927 39.48 174.022 39.0948C174.595 36.0136 177.361 33.7028 180.413 33.7028C183.084 33.7028 184.992 35.3396 184.992 38.132C185.088 38.5171 185.088 38.806 184.992 39.1911ZM180.032 36.5914C178.41 36.5914 177.075 38.132 177.075 39.6725C177.075 40.828 177.933 41.6946 179.078 41.6946C180.7 41.6946 182.035 40.154 182.035 38.6134C182.035 37.458 181.272 36.5914 180.032 36.5914Z" fill="white"/>
<path d="M201.589 38.7097L200.54 44.2943H197.488L198.537 38.9023C198.632 38.6134 198.632 38.2283 198.632 37.9394C198.632 37.0728 198.251 36.6877 197.392 36.6877C196.057 36.6877 195.58 37.6506 195.294 38.806L194.244 44.3906H191.192L192.241 38.806C192.337 38.5171 192.337 38.2283 192.337 38.0357C192.337 37.2654 191.955 36.6877 191.097 36.6877C189.666 36.6877 189.189 37.7468 188.998 38.9986L187.949 44.3906H184.896L186.804 34.1842H189.666L189.475 35.2434C190.238 34.1842 191.287 33.7991 192.527 33.7991C193.767 33.7991 194.721 34.3768 195.103 35.6285C195.961 34.5694 197.201 33.7991 198.632 33.7991C199.586 33.7991 200.54 34.0879 201.112 34.8582C201.589 35.4359 201.78 35.9174 201.78 36.6877C201.876 37.2654 201.78 38.0357 201.589 38.7097Z" fill="white"/>
<path d="M205.024 44.2944H201.971L203.879 34.0879H206.931L205.024 44.2944ZM207.122 32.9325H204.07L204.451 30.6216H207.504L207.122 32.9325Z" fill="white"/>
<path d="M215.135 36.9765H212.178C212.178 36.8802 212.178 36.8802 212.178 36.7839C212.178 36.3025 211.796 36.2062 211.319 36.2062C210.842 36.2062 210.27 36.4951 210.27 36.9765C210.27 38.3245 214.658 37.7468 214.658 40.5391C214.658 43.1389 212.178 44.5832 209.793 44.5832C207.885 44.5832 206.263 43.6203 206.263 41.5983C206.263 41.502 206.263 41.4057 206.263 41.2131H209.316V41.3094C209.316 41.8871 209.793 42.176 210.27 42.176C210.842 42.176 211.51 41.8872 211.51 41.2131C211.51 39.8651 207.122 40.154 207.122 37.5542C207.122 37.3617 207.122 37.2654 207.122 37.0728C207.503 34.9545 209.697 33.7028 211.701 33.7028C213.513 33.7028 215.039 34.5693 215.039 36.4951C215.135 36.6877 215.135 36.7839 215.135 36.9765Z" fill="white"/>
<path d="M217.901 44.2944H214.849L216.757 34.0879H219.809L217.901 44.2944ZM219.905 32.9325H216.852L217.234 30.6216H220.286L219.905 32.9325Z" fill="white"/>
<path d="M230.683 39.1911C230.111 42.2723 227.345 44.5832 224.197 44.5832C221.526 44.5832 219.618 42.9463 219.618 40.154C219.618 39.7688 219.618 39.48 219.714 39.0948C220.286 36.0136 223.052 33.7028 226.105 33.7028C228.776 33.7028 230.683 35.3396 230.683 38.132C230.779 38.5171 230.779 38.806 230.683 39.1911ZM225.723 36.5914C224.101 36.5914 222.766 38.132 222.766 39.6725C222.766 40.828 223.625 41.6946 224.769 41.6946C226.391 41.6946 227.726 40.154 227.726 38.6134C227.726 37.458 226.868 36.5914 225.723 36.5914Z" fill="white"/>
<path d="M241.272 37.8431L240.127 44.1981H237.074L238.124 38.6134C238.219 38.3246 238.219 38.0357 238.219 37.7468C238.219 36.8803 237.742 36.4951 236.884 36.4951C235.453 36.4951 234.976 37.458 234.785 38.6134L233.736 44.1981H230.779L232.687 33.9917H235.548L235.357 35.0508C236.121 34.0879 237.074 33.6065 238.41 33.6065C239.173 33.6065 240.222 33.8954 240.795 34.4731C241.367 35.0508 241.462 35.7248 241.462 36.4951C241.462 37.0728 241.367 37.458 241.272 37.8431Z" fill="white"/>
<path d="M28.2683 11.3643C28.2683 11.3643 28.2683 11.2681 28.2683 11.3643C26.6467 9.4386 23.9758 8.57202 20.351 8.57202H5.85184L0.891602 44.1019H10.1443L11.6706 33.1252H14.6276C18.2524 33.1252 21.3049 32.4512 23.6896 31.1994C23.5942 30.1403 23.4988 29.0811 23.4988 27.9257C23.4988 21.7633 25.1204 16.275 28.2683 11.3643ZM14.4369 26.0962H12.6245L14.1507 15.6973H16.44C19.3971 15.6973 20.8279 17.0453 20.8279 19.645C20.8279 24.4594 18.4432 26.0962 14.4369 26.0962Z" fill="white"/>
<path d="M103.053 8.5719H92.6561L78.92 23.0149L80.9232 8.5719H71.6704V8.66819C73.4828 12.0382 74.3413 15.986 74.3413 20.5115C74.3413 28.1181 71.9566 34.7619 67.2825 40.2503L66.7102 44.1018H75.9629L77.3938 33.7028L81.3047 29.9476L86.9327 44.1018H97.3301L88.8405 23.4964L103.053 8.5719Z" fill="white"/>
<g opacity="0.5">
<path opacity="0.5" d="M114.767 8.56758L108.182 44.2543L108.745 44.3601L115.33 8.67336L114.767 8.56758Z" fill="white"/>
</g>
<path opacity="0.7" d="M66.4234 6.26099C63.0848 2.69838 58.4107 0.868927 52.4012 0.868927C45.1516 0.868927 39.0467 3.56496 33.9911 8.86074C28.9354 14.1565 26.4553 20.6077 26.4553 28.0218C26.4553 33.8953 28.0769 38.6134 31.4156 42.2723C34.7542 45.8349 39.4282 47.6644 45.4378 47.6644C52.6873 47.6644 58.7922 44.9683 63.8479 39.6726C68.9035 34.3768 71.3836 27.9256 71.3836 20.5115C71.3836 14.5417 69.762 9.82361 66.4234 6.26099ZM56.6937 33.5102C54.0228 36.784 50.6842 38.5171 46.5824 38.5171C40.7637 38.5171 37.2343 34.0879 37.2343 27.3478C37.2343 22.3409 38.4744 18.2006 41.1453 14.9268C43.8161 11.5568 47.1548 9.9199 51.2565 9.9199C57.1706 9.9199 60.6046 14.3491 60.6046 21.0892C60.6046 25.9998 59.2692 30.2364 56.6937 33.5102Z" fill="white"/>
</g>
<defs>
<clipPath id="clip0_3283_70654">
<rect width="240.571" height="46.6992" fill="white" transform="translate(0.890869 0.868896)"/>
</clipPath>
</defs>
</svg>
