<svg width="58" height="57" viewBox="0 0 58 57" fill="none" xmlns="http://www.w3.org/2000/svg">
<g clip-path="url(#clip0_30_296)">
<path d="M38.7827 20.7617V5.17456C38.7827 2.43156 36.5511 0.199951 33.8081 0.199951H7.27686C4.53386 0.199951 2.30225 2.43156 2.30225 5.17456V51.8253C2.30225 54.5683 4.53386 56.8 7.27686 56.8H33.8081C36.5511 56.8 38.7827 54.5683 38.7827 51.8253V33.5851H51.6062V20.7617H38.7827Z" fill="url(#paint0_linear_30_296)"/>
<rect x="19.1226" y="9.07837" width="35.5137" height="35.5137" rx="8.87843" fill="url(#paint1_linear_30_296)"/>
<g clip-path="url(#clip1_30_296)">
<path d="M30.917 23.0441L30.8971 23.0209C30.4557 22.5254 29.7397 22.2842 28.7262 22.2842H24.7297L23.3623 31.9826H25.9235L26.3386 28.9827H27.1438C28.1557 28.9827 28.9923 28.8043 29.6554 28.4673C29.4567 26.5695 29.9009 24.6599 30.917 23.0441ZM27.1024 27.0665H26.6064L27.0231 24.2268H27.6663C28.4715 24.2268 28.8733 24.5886 28.8733 25.2973C28.8733 26.6238 28.2152 27.0665 27.1024 27.0665Z" fill="#07074E"/>
<path d="M51.5425 22.2842H48.6737L44.9055 26.2224L45.456 22.2842H42.8948V22.2974C43.4064 23.2975 43.6609 24.409 43.6356 25.5318C43.6683 27.5109 42.9715 29.4329 41.6779 30.932L41.5291 31.9826H44.0903L44.4921 29.1429L45.5652 28.1105L47.1194 31.9826H49.9767L47.6287 26.3429L51.5425 22.2842Z" fill="#07074E"/>
<path d="M41.4415 21.6596C40.5222 20.6685 39.2308 20.1729 37.5856 20.1729C36.6336 20.1586 35.6893 20.3448 34.8141 20.7193C33.939 21.0939 33.1526 21.6484 32.5062 22.3468C31.8275 23.0363 31.2934 23.8542 30.9351 24.7525C30.5767 25.6508 30.4015 26.6116 30.4195 27.5784C30.4195 29.1874 30.8792 30.4776 31.7985 31.4687C32.7178 32.4599 34.0108 32.9356 35.656 32.9356C36.6079 32.9501 37.5522 32.7638 38.4272 32.389C39.3022 32.0141 40.0881 31.459 40.7338 30.76C41.4128 30.0707 41.9472 29.2529 42.3058 28.3545C42.6644 27.4562 42.84 26.4954 42.8222 25.5284C42.8222 23.9216 42.3619 22.632 41.4415 21.6596ZM38.753 29.1032C38.4275 29.5344 38.0046 29.8826 37.5186 30.1192C37.0326 30.3558 36.4975 30.4741 35.9569 30.4643C34.3465 30.4643 33.3908 29.2618 33.3908 27.4232C33.3908 26.062 33.7446 24.9304 34.4705 24.0285C34.7935 23.5935 35.2156 23.2416 35.7018 23.002C36.1881 22.7624 36.7244 22.642 37.2665 22.6508C38.8935 22.6508 39.8492 23.8517 39.8492 25.6903C39.8492 27.0515 39.4722 28.183 38.753 29.1032V29.1032Z" fill="#008ACD"/>
</g>
<rect x="15.7935" y="53.4705" width="11.098" height="1.1098" rx="0.554902" fill="#EAF7FF"/>
<rect x="18.0129" y="2.97437" width="6.65882" height="1.66471" rx="0.832353" fill="#EAF7FF"/>
</g>
<defs>
<linearGradient id="paint0_linear_30_296" x1="26.9542" y1="56.8" x2="26.9542" y2="0.199951" gradientUnits="userSpaceOnUse">
<stop stop-color="#4D48D7"/>
<stop offset="1" stop-color="#28B2F5"/>
</linearGradient>
<linearGradient id="paint1_linear_30_296" x1="36.8795" y1="44.5921" x2="36.8795" y2="9.07837" gradientUnits="userSpaceOnUse">
<stop stop-color="#ADDCFF"/>
<stop offset="0.5028" stop-color="#EAF6FF"/>
<stop offset="1" stop-color="#EAF6FF"/>
</linearGradient>
<clipPath id="clip0_30_296">
<rect width="56.6" height="56.6" fill="white" transform="translate(0.533447 0.199951)"/>
</clipPath>
<clipPath id="clip1_30_296">
<rect width="28.1785" height="12.7627" fill="white" transform="translate(23.3623 20.1763)"/>
</clipPath>
</defs>
</svg>
