<svg width="246" height="29" viewBox="0 0 246 29" fill="none" xmlns="http://www.w3.org/2000/svg">
<path d="M7.40556 2.67968C4.42714 2.67968 2.41469 4.37014 2.41469 6.62408C2.41469 8.87802 4.58814 9.9245 6.60058 10.488L8.85453 11.132C11.511 11.8564 14.5699 13.3054 14.5699 16.7668C14.5699 20.1477 11.8329 22.7237 7.24457 22.7237C2.97818 22.7237 0.24125 20.3892 -0.000244141 17.0888H2.0122C2.2537 19.5842 4.42714 20.9527 7.24457 20.9527C10.384 20.9527 12.7184 19.2623 12.7184 16.6863C12.7184 14.5129 10.9475 13.5469 8.29104 12.8224L5.79561 12.0979C2.49519 11.132 0.563241 9.44151 0.563241 6.70458C0.563241 3.32367 3.54166 0.989227 7.48606 0.989227C11.4305 0.989227 14.1674 3.32367 14.3284 6.54358H12.4769C12.1549 4.20915 10.1425 2.67968 7.40556 2.67968ZM18.8363 1.31122H20.6877V14.0299H20.9292L28.335 6.62408H30.589L23.8271 13.3859L30.9915 22.4017H28.657L22.4587 14.5934L20.6072 16.2033V22.3212H18.7558V1.31122H18.8363ZM33.2454 17.9743C33.2454 14.8349 35.7408 13.8689 39.2827 13.3859C41.9392 13.0639 43.3881 13.0639 43.3881 11.8564V11.454C43.3881 9.28051 42.1002 7.99255 39.6852 7.99255C37.4313 7.99255 35.9823 9.11952 35.4188 10.488L33.6479 9.844C34.6944 7.26806 37.1898 6.30209 39.6047 6.30209C42.0197 6.30209 45.2396 7.34857 45.2396 11.615V22.3212H43.4686V19.8257H43.3881C42.7442 21.1942 41.1342 22.7237 38.4778 22.7237C35.5798 22.7237 33.2454 20.9527 33.2454 17.9743ZM43.4686 16.2838V14.0299C42.9051 14.5934 40.6512 14.8349 39.3632 14.9959C36.7068 15.3179 35.0968 16.1228 35.0968 18.0548C35.0968 19.9867 36.6263 21.0332 38.7193 21.0332C41.6172 21.0332 43.4686 18.8598 43.4686 16.2838ZM52.0014 22.3212H50.15V6.54358H51.9209V9.03902H52.0819C52.8064 7.42906 54.4164 6.38259 56.7508 6.38259C59.9707 6.38259 62.1441 8.39504 62.1441 12.1784V22.4017H60.2927V12.2589C60.2927 9.683 58.7632 8.07305 56.2678 8.07305C53.7724 8.07305 52.0014 9.7635 52.0014 12.5004V22.3212ZM66.169 14.5129C66.169 9.68301 69.067 6.30209 73.0919 6.30209C77.1168 6.30209 80.0147 9.68301 80.0147 14.5129C80.0147 19.3428 77.1168 22.6432 73.0919 22.6432C69.067 22.6432 66.169 19.3428 66.169 14.5129ZM78.2437 14.5129C78.2437 10.971 76.3923 7.99255 73.0919 7.99255C69.7915 7.99255 67.94 10.971 67.94 14.5129C67.94 18.0548 69.7915 21.0332 73.0919 21.0332C76.3923 21.0332 78.2437 18.0548 78.2437 14.5129ZM91.4454 14.5129C91.4454 9.68301 94.1018 6.38259 97.9657 6.38259C100.864 6.38259 102.152 8.23404 102.796 9.60251H102.957V1.31122H104.808V22.4017H103.037V19.4233H102.796C102.152 20.8722 100.783 22.7237 97.9657 22.7237C94.0213 22.7237 91.4454 19.4233 91.4454 14.5129ZM102.957 14.4324C102.957 10.649 101.186 7.99255 98.1267 7.99255C94.9873 7.99255 93.2163 10.81 93.2163 14.4324C93.2163 18.1353 94.9068 20.9527 98.1267 20.9527C101.186 21.0332 102.957 18.2963 102.957 14.4324ZM111.811 22.3212H109.96V1.31122H111.811V9.03902H111.972C112.697 7.42906 114.307 6.38259 116.641 6.38259C119.861 6.38259 122.035 8.39504 122.035 12.1784V22.4017H120.183V12.2589C120.183 9.683 118.654 8.07305 116.158 8.07305C113.663 8.07305 111.811 9.7635 111.811 12.5004V22.3212ZM126.06 14.5129C126.06 9.7635 128.877 6.30209 132.982 6.30209C136.444 6.30209 139.664 8.79753 139.664 14.0299V14.9154H127.911C127.991 18.5378 130.004 20.9527 133.304 20.9527C135.558 20.9527 137.007 19.7452 137.571 18.3768L139.342 18.9403C138.617 20.9527 136.524 22.6432 133.304 22.6432C128.877 22.7237 126.06 19.3428 126.06 14.5129ZM137.812 13.3859C137.812 10.327 135.8 7.99255 132.982 7.99255C130.084 7.99255 128.072 10.4075 127.911 13.3859H137.812ZM151.819 6.54358H153.59V9.52201H153.831C154.475 8.07304 155.763 6.30209 158.661 6.30209C162.606 6.30209 165.181 9.60251 165.181 14.4324C165.181 19.3428 162.525 22.6432 158.661 22.6432C155.763 22.6432 154.395 20.7917 153.831 19.3428H153.67V28.1975H151.819V6.54358ZM158.5 21.0332C161.64 21.0332 163.411 18.1353 163.411 14.5129C163.411 10.8905 161.72 8.07305 158.5 8.07305C155.441 8.07305 153.67 10.7295 153.67 14.5129C153.67 18.2963 155.441 21.0332 158.5 21.0332ZM168.482 17.9743C168.482 14.8349 170.977 13.8689 174.519 13.3859C177.176 13.0639 178.625 13.0639 178.625 11.8564V11.454C178.625 9.28051 177.337 7.99255 174.922 7.99255C172.668 7.99255 171.219 9.11952 170.655 10.488L168.884 9.844C169.931 7.26806 172.426 6.30209 174.841 6.30209C177.256 6.30209 180.476 7.34857 180.476 11.615V22.3212H178.705V19.8257H178.625C177.981 21.1942 176.371 22.7237 173.714 22.7237C170.816 22.7237 168.482 20.9527 168.482 17.9743ZM178.705 16.2838V14.0299C178.142 14.5934 175.888 14.8349 174.6 14.9959C171.943 15.3179 170.333 16.1228 170.333 18.0548C170.333 19.9867 171.863 21.0332 173.956 21.0332C176.854 21.0332 178.705 18.8598 178.705 16.2838ZM185.225 25.4606L186.755 24.4946C187.399 25.7021 188.687 26.9901 191.424 26.9901C194.241 26.9901 196.093 25.6216 196.093 22.6432V19.1013H195.932C195.288 20.5502 193.919 22.1602 191.102 22.1602C187.318 22.1602 184.581 19.2623 184.581 14.3519C184.581 9.52201 187.238 6.30209 191.102 6.30209C194 6.30209 195.288 8.15354 195.932 9.52201H196.093V6.54358H197.864V22.8042C197.864 26.8291 195.046 28.6805 191.343 28.6805C188.204 28.6 186.191 27.2316 185.225 25.4606ZM196.093 14.3519C196.093 10.649 194.322 7.99255 191.263 7.99255C188.123 7.99255 186.352 10.81 186.352 14.3519C186.352 17.9743 188.123 20.4697 191.263 20.4697C194.322 20.5502 196.093 18.2158 196.093 14.3519ZM212.836 6.54358H214.688V22.3212H212.836V19.6647H212.675C211.951 21.2747 210.26 22.4822 208.006 22.4822C204.947 22.4822 202.774 20.4697 202.774 16.6863V6.54358H204.625V16.6863C204.625 19.1818 206.235 20.7917 208.489 20.7917C210.663 20.7917 212.836 19.2623 212.836 16.3643V6.54358ZM218.713 17.9743C218.713 14.8349 221.208 13.8689 224.75 13.3859C227.406 13.0639 228.855 13.0639 228.855 11.8564V11.454C228.855 9.28051 227.567 7.99255 225.152 7.99255C222.899 7.99255 221.45 9.11952 220.886 10.488L219.115 9.844C220.162 7.26806 222.657 6.30209 225.072 6.30209C227.487 6.30209 230.707 7.34857 230.707 11.615V22.3212H228.855V19.8257H228.775C228.131 21.1942 226.521 22.7237 223.864 22.7237C221.047 22.7237 218.713 20.9527 218.713 17.9743ZM228.936 16.2838V14.0299C228.372 14.5934 226.118 14.8349 224.83 14.9959C222.174 15.3179 220.564 16.1228 220.564 18.0548C220.564 19.9867 222.094 21.0332 224.186 21.0332C227.084 21.0332 228.936 18.8598 228.936 16.2838ZM237.469 6.54358V23.8506C237.469 26.5876 235.939 28.278 233.202 28.278C233.041 28.278 232.961 28.278 232.8 28.278V26.5876H233.202C234.732 26.5876 235.617 25.6216 235.617 23.9311V6.54358H237.469ZM235.215 2.51869C235.215 1.79421 235.859 1.23072 236.583 1.23072C237.308 1.23072 237.952 1.79421 237.952 2.51869C237.952 3.24317 237.308 3.80665 236.583 3.80665C235.778 3.80665 235.215 3.24317 235.215 2.51869ZM242.379 21.0332C242.379 20.2282 243.023 19.5842 243.828 19.5842C244.633 19.5842 245.277 20.2282 245.277 21.0332C245.277 21.8382 244.633 22.4822 243.828 22.4822C243.023 22.4822 242.379 21.8382 242.379 21.0332ZM244.794 16.2838H243.023L242.862 1.23072H244.955L244.794 16.2838Z" fill="url(#paint0_linear_3283_69654)"/>
<defs>
<linearGradient id="paint0_linear_3283_69654" x1="-0.000244141" y1="14.8003" x2="245.356" y2="14.8003" gradientUnits="userSpaceOnUse">
<stop stop-color="#008ACD"/>
<stop offset="1" stop-color="#07074E"/>
</linearGradient>
</defs>
</svg>
