<svg width="35" height="54" viewBox="0 0 35 54" fill="none" xmlns="http://www.w3.org/2000/svg">
<path d="M12.8316 34.0342C12.1486 33.3558 11.5793 32.6774 10.7824 31.999C10.5547 32.2251 10.4409 32.5643 10.4409 32.9035C10.4409 33.3558 10.5547 33.695 10.8963 33.9212C11.124 34.1473 11.5793 34.3734 11.9209 34.3734C12.2624 34.3734 12.4901 34.2604 12.8316 34.0342ZM21.5977 30.8683V3.95747C21.5977 3.39212 21.37 2.93983 21.0285 2.60062C20.687 2.26141 20.1177 2.03527 19.6624 2.03527H4.06557C3.49634 2.03527 3.04095 2.26141 2.69941 2.60062C2.35788 2.93983 2.13019 3.50519 2.13019 3.95747V35.1649C2.13019 35.7303 2.35788 36.1826 2.69941 36.5218C3.04095 36.861 3.61019 37.0871 4.06557 37.0871H15.3362C14.767 36.4087 14.1978 35.7303 13.6286 35.0519C13.1732 35.5041 12.4901 35.7303 11.807 35.7303C11.0101 35.7303 10.327 35.3911 9.87166 34.9388C9.41628 34.4865 9.07475 33.695 9.07475 32.9035C9.07475 32.112 9.41628 31.5467 9.87166 30.9813C8.9609 29.9637 8.73321 28.833 8.9609 27.7023C9.07474 27.1369 9.30244 26.6846 9.64398 26.2324C9.98551 25.7801 10.4409 25.4409 11.0101 25.2147C12.0347 24.7624 13.4009 24.8755 14.767 25.7801C16.3608 26.7977 17.8408 27.9284 19.207 28.9461C20.1177 29.7376 20.9146 30.3029 21.5977 30.8683ZM10.4409 7.91494H5.6594V12.6639H10.4409V7.91494ZM5.09017 6.55809H11.6932V13.7946H4.40709V6.55809H5.09017ZM7.13939 9.27178H9.07475V11.194H7.13939V9.27178ZM18.5239 7.91494H13.7424V12.6639H18.5239V7.91494ZM13.0593 6.55809H19.6624V13.7946H12.4901V6.55809H13.0593ZM15.1085 9.27178H17.0439V11.194H15.1085V9.27178ZM10.4409 15.7168H5.6594V20.4658H10.4409V15.7168ZM5.09017 14.473H11.6932V21.7095H4.40709V14.473H5.09017V14.473ZM7.13939 17.0737H9.07475V18.9958H7.13939V17.0737ZM12.4901 14.5861H16.247V15.8299H17.727V17.0737H16.247V17.9782H19.7762V19.222H14.9947V15.8299H12.4901V14.5861ZM12.4901 20.4658H16.1331V21.7095H12.4901V20.4658ZM17.727 20.4658H19.7762V21.7095H17.727V20.4658ZM19.7762 14.5861V16.9606H18.5239V14.5861H19.7762ZM13.7424 16.8475V18.9958H12.4901V16.8475H13.7424ZM23.6469 32.3382L25.5823 34.2604C26.0377 34.7127 26.0377 35.3911 25.5823 35.8434C25.1269 36.2956 24.4439 36.2956 23.9885 35.8434L21.7116 33.5819C20.5731 32.5643 19.3208 31.6598 17.9547 30.6421C16.5885 29.6245 15.1085 28.6068 13.5147 27.4761C12.7178 27.0239 12.1486 26.9108 11.6932 27.1369C11.4655 27.25 11.3517 27.3631 11.124 27.5892C11.0101 27.8154 10.8963 28.0415 10.7824 28.2676C10.6686 28.833 10.7824 29.3983 11.3517 29.9637C12.7178 31.3205 13.9701 32.5643 15.1085 33.9212C16.1332 35.1649 17.1577 36.4087 18.0685 37.7656C18.2962 37.8786 18.41 38.1048 18.41 38.444C18.41 38.5571 18.41 38.6701 18.41 38.7832V38.8963C18.5239 40.3662 18.8654 41.4969 19.3208 42.5145C19.7762 43.5322 20.5731 44.5498 21.5977 45.5674C22.0531 45.9066 22.0531 46.5851 21.5977 47.0373C21.2562 47.4896 20.5731 47.4896 20.1177 47.0373C18.8654 45.7936 17.9547 44.6629 17.3854 43.4191C16.9301 42.4015 16.5885 41.2707 16.4747 39.9139H10.2132C9.75782 39.9139 9.53013 40.14 9.41629 40.3662C9.30244 40.5923 9.30244 40.7054 9.30244 40.9315C9.30244 41.1577 9.41628 41.3838 9.53012 41.61C9.75781 41.9492 10.0994 42.1753 10.5547 42.1753C11.124 42.0622 11.5793 42.0622 11.807 41.9492C13.1732 41.723 13.8562 41.61 15.5639 41.9492C15.9055 42.0622 16.1332 42.1753 16.247 42.5145C16.8162 43.7583 17.6131 44.889 18.6377 45.9066C19.6623 46.9243 20.8008 47.9419 21.9393 48.9595C22.0531 49.0726 22.167 49.1857 22.2808 49.4118L22.7362 50.4295L22.9639 51.1079C23.5331 51.6732 25.6961 51.4471 27.9731 50.9948C28.8838 50.7687 29.7946 50.5425 30.5915 50.2033C31.2745 49.8641 31.9576 49.5249 32.2992 49.1857C32.5268 48.9595 32.6407 48.8465 32.5269 48.7334C32.5269 48.6203 32.413 48.6203 32.413 48.5073C32.1853 46.8112 31.9576 45.5674 31.7299 44.4367C31.0469 40.7054 30.7053 38.5571 30.8192 33.8081C30.8192 33.1297 30.5915 32.4512 30.25 31.999C29.7946 31.4336 29.1115 30.8683 28.3146 30.416C26.8346 29.6245 26.1515 28.2676 25.3546 26.9108C24.7854 25.8932 24.2162 24.8755 23.3054 24.1971L23.6469 32.3382ZM4.06557 0H19.6624C20.8008 0 21.7116 0.452282 22.5085 1.13071C23.1916 1.80913 23.6469 2.82676 23.6469 3.95747V21.5965C25.6961 22.388 26.6069 23.971 27.5177 25.5539C28.0869 26.6846 28.77 27.7023 29.6807 28.2676C30.7053 28.833 31.5022 29.5114 32.1853 30.3029C32.8684 31.2075 33.2099 32.2251 33.2099 33.4689C33.0961 37.9917 33.4376 40.027 34.1207 43.6452C34.3484 44.7759 34.5761 46.1328 34.8038 47.7158C35.1453 48.6203 34.8037 49.5249 34.0068 50.3164C33.4376 50.8817 32.6407 51.334 31.6161 51.7863C30.7053 52.1255 29.6807 52.4647 28.6561 52.6909C25.5823 53.3693 22.3946 53.2562 21.4839 51.7863C21.4839 51.6732 21.37 51.6732 21.37 51.5602C21.2562 51.334 21.2562 51.1079 21.1423 50.8817L20.8008 50.0902C19.6624 49.1857 18.5239 48.168 17.4993 47.0373C16.4747 46.0197 15.5639 44.7759 14.9947 43.5322C13.9701 43.4191 13.4009 43.5322 12.4901 43.6452C12.0347 43.7583 11.5793 43.7583 11.124 43.8714C9.64398 44.0975 8.61938 43.306 8.05015 42.2884C7.82246 41.8361 7.7086 41.3838 7.59476 40.8185C7.59476 40.3662 7.59476 39.8008 7.82245 39.3485V39.2355C7.82245 39.1224 7.9363 39.0093 7.9363 39.0093H4.1794C3.04095 39.0093 2.13019 38.5571 1.33328 37.8786C0.650205 37.2002 0.194824 36.1826 0.194824 35.0519V3.95747C0.194824 2.82676 0.650205 1.9222 1.33328 1.13071C1.9025 0.452282 2.92712 0 4.06557 0Z" fill="url(#paint0_linear_3283_70652)"/>
<defs>
<linearGradient id="paint0_linear_3283_70652" x1="0.0521762" y1="26.5792" x2="34.9439" y2="26.5792" gradientUnits="userSpaceOnUse">
<stop stop-color="#008ACD"/>
<stop offset="1" stop-color="#07074E"/>
</linearGradient>
</defs>
</svg>
